<svg xmlns="http://www.w3.org/2000/svg" width="148" height="148">
<path stroke="#074b83" stroke-width="1" fill="#2196F3" d="M26.19 22.75a70 70, 0, 0, 1, 95.31 0l-66.88 97.19a50 50,0,0,0,50 -6.56l17.19 12.13a70 70,0,0,1,-95.31 0l66.88 -97.19a50 50,0,0,0,-50 6.56Z"/>
<path stroke="#8d1007" stroke-width="1" fill="#f44336" d="M22.75 121.81a70 70,0,0,1,0 -95.31l44.69 30.94l-12.13 17.19l -27.81 -19.38a50 50,0,0,0,6.56 50Z m69.38 -47.5l27.81 19.38a50 50,0,0,0,-6.56 -50l12.13 -17.19a70 70,0,0,1,0 95.31l-44.69 -30.94Z"/>
</svg>
